<mxfile host="app.diagrams.net" agent="Mozilla/5.0 (Macintosh; Intel Mac OS X 10_15_7) AppleWebKit/537.36 (KHTML, like Gecko) Chrome/126.0.0.0 Safari/537.36" version="24.7.6">
  <diagram name="Страница — 1" id="H6HKCK6a4Jfu8SgZN8AD">
    <mxGraphModel dx="954" dy="526" grid="1" gridSize="10" guides="1" tooltips="1" connect="1" arrows="1" fold="1" page="1" pageScale="1" pageWidth="827" pageHeight="1169" math="0" shadow="0">
      <root>
        <mxCell id="0" />
        <mxCell id="1" parent="0" />
        <mxCell id="KEKY3t5OdQgL9GxD8aoG-3" value="&lt;h3&gt;PBKDF&lt;font style=&quot;font-size: 8px;&quot;&gt;PRF,C&lt;/font&gt;&lt;/h3&gt;" style="rounded=1;whiteSpace=wrap;html=1;" parent="1" vertex="1">
          <mxGeometry x="220" y="245" width="120" height="60" as="geometry" />
        </mxCell>
        <mxCell id="LiO4FCC_3UshxrkojWN3-1" value="Password" style="text;html=1;align=center;verticalAlign=middle;whiteSpace=wrap;rounded=0;" vertex="1" parent="1">
          <mxGeometry x="100" y="220" width="60" height="30" as="geometry" />
        </mxCell>
        <mxCell id="LiO4FCC_3UshxrkojWN3-2" value="Ket bit-length" style="text;html=1;align=center;verticalAlign=middle;resizable=0;points=[];autosize=1;strokeColor=none;fillColor=none;" vertex="1" parent="1">
          <mxGeometry x="70" y="260" width="90" height="30" as="geometry" />
        </mxCell>
        <mxCell id="LiO4FCC_3UshxrkojWN3-3" value="Salt" style="text;html=1;align=center;verticalAlign=middle;resizable=0;points=[];autosize=1;strokeColor=none;fillColor=none;" vertex="1" parent="1">
          <mxGeometry x="120" y="300" width="40" height="30" as="geometry" />
        </mxCell>
        <mxCell id="LiO4FCC_3UshxrkojWN3-4" value="" style="endArrow=classic;html=1;rounded=0;exitX=1;exitY=0.5;exitDx=0;exitDy=0;entryX=0;entryY=0.25;entryDx=0;entryDy=0;" edge="1" parent="1" source="LiO4FCC_3UshxrkojWN3-1" target="KEKY3t5OdQgL9GxD8aoG-3">
          <mxGeometry width="50" height="50" relative="1" as="geometry">
            <mxPoint x="390" y="320" as="sourcePoint" />
            <mxPoint x="210" y="260" as="targetPoint" />
            <Array as="points">
              <mxPoint x="180" y="235" />
              <mxPoint x="180" y="260" />
            </Array>
          </mxGeometry>
        </mxCell>
        <mxCell id="LiO4FCC_3UshxrkojWN3-5" value="" style="endArrow=classic;html=1;rounded=0;exitX=1.042;exitY=0.539;exitDx=0;exitDy=0;exitPerimeter=0;entryX=0;entryY=0.75;entryDx=0;entryDy=0;" edge="1" parent="1" source="LiO4FCC_3UshxrkojWN3-3" target="KEKY3t5OdQgL9GxD8aoG-3">
          <mxGeometry width="50" height="50" relative="1" as="geometry">
            <mxPoint x="220" y="320" as="sourcePoint" />
            <mxPoint x="270" y="270" as="targetPoint" />
            <Array as="points">
              <mxPoint x="180" y="316" />
              <mxPoint x="180" y="290" />
            </Array>
          </mxGeometry>
        </mxCell>
        <mxCell id="LiO4FCC_3UshxrkojWN3-6" value="" style="endArrow=classic;html=1;rounded=0;exitX=1.01;exitY=0.525;exitDx=0;exitDy=0;exitPerimeter=0;" edge="1" parent="1" source="LiO4FCC_3UshxrkojWN3-2" target="KEKY3t5OdQgL9GxD8aoG-3">
          <mxGeometry width="50" height="50" relative="1" as="geometry">
            <mxPoint x="220" y="320" as="sourcePoint" />
            <mxPoint x="270" y="270" as="targetPoint" />
          </mxGeometry>
        </mxCell>
        <mxCell id="LiO4FCC_3UshxrkojWN3-8" value="Key" style="text;strokeColor=none;fillColor=none;align=left;verticalAlign=middle;spacingLeft=4;spacingRight=4;overflow=hidden;points=[[0,0.5],[1,0.5]];portConstraint=eastwest;rotatable=0;whiteSpace=wrap;html=1;" vertex="1" parent="1">
          <mxGeometry x="400" y="260" width="80" height="30" as="geometry" />
        </mxCell>
        <mxCell id="LiO4FCC_3UshxrkojWN3-9" value="" style="endArrow=classic;html=1;rounded=0;exitX=1;exitY=0.5;exitDx=0;exitDy=0;" edge="1" parent="1" source="KEKY3t5OdQgL9GxD8aoG-3" target="LiO4FCC_3UshxrkojWN3-8">
          <mxGeometry width="50" height="50" relative="1" as="geometry">
            <mxPoint x="270" y="320" as="sourcePoint" />
            <mxPoint x="320" y="270" as="targetPoint" />
          </mxGeometry>
        </mxCell>
      </root>
    </mxGraphModel>
  </diagram>
</mxfile>
